HIERARCHY
ROOT Hips
{
  OFFSET 0.0000 0.0000 0.0000
  CHANNELS 6 Xposition Yposition Zposition Zrotation Xrotation Yrotation
  JOINT LeftHip
  {
    OFFSET 8.2414 -3.0948 6.2759
    CHANNELS 3 Zrotation Xrotation Yrotation
    JOINT LeftKnee
    {
      OFFSET 0.0000 -36.8017 -0.3103
      CHANNELS 3 Zrotation Xrotation Yrotation
      JOINT LeftAnkle
      {
        OFFSET -0.0862 -37.3534 -1.9397
        CHANNELS 3 Zrotation Xrotation Yrotation
        JOINT LFoot
        {
          OFFSET -0.0345 -5.7759 12.9310
          CHANNELS 3 Zrotation Xrotation Yrotation
          End Site
          {
              OFFSET 0.0690 -0.7500 5.9052
          }
        }
      }
    }
  }
  JOINT RightHip
  {
    OFFSET -8.2414 -3.0948 6.2759
    CHANNELS 3 Zrotation Xrotation Yrotation
    JOINT RightKnee
    {
      OFFSET -0.0000 -36.8017 -0.3103
      CHANNELS 3 Zrotation Xrotation Yrotation
      JOINT RightAnkle
      {
        OFFSET 0.0862 -37.3534 -1.9397
        CHANNELS 3 Zrotation Xrotation Yrotation
        JOINT RFoot
        {
          OFFSET 0.0345 -5.7759 12.9310
          CHANNELS 3 Zrotation Xrotation Yrotation
          End Site
          {
              OFFSET -0.0690 -0.8276 5.9052
          }
        }
      }
    }
  }
  JOINT Chest
  {
    OFFSET -0.0000 9.4310 0.0000
    CHANNELS 3 Zrotation Xrotation Yrotation
    JOINT LeftCollar
    {
      OFFSET 7.7500 31.9655 3.5000
      CHANNELS 3 Zrotation Xrotation Yrotation
      JOINT LeftShoulder
      {
        OFFSET 8.3534 1.8707 0.4914
        CHANNELS 3 Zrotation Xrotation Yrotation
        JOINT LeftElbow
        {
          OFFSET 27.0136 0.9828 -0.1635
          CHANNELS 3 Zrotation Xrotation Yrotation
          JOINT LeftWrist
          {
            OFFSET 23.2271 -0.0862 0.8812
            CHANNELS 3 Zrotation Xrotation Yrotation
            End Site
            {
                OFFSET 16.7872 -0.5172 1.2956
            }
          }
        }
      }
    }
    JOINT RightCollar
    {
      OFFSET -7.7500 31.9655 3.5000
      CHANNELS 3 Zrotation Xrotation Yrotation
      JOINT RightShoulder
      {
        OFFSET -8.3534 1.8707 0.4914
        CHANNELS 3 Zrotation Xrotation Yrotation
        JOINT RightElbow
        {
          OFFSET -27.0136 0.9828 -0.1635
          CHANNELS 3 Zrotation Xrotation Yrotation
          JOINT RightWrist
          {
            OFFSET -23.2271 -0.0862 0.8812
            CHANNELS 3 Zrotation Xrotation Yrotation
            End Site
            {
                OFFSET -16.7872 -0.5172 1.2956
            }
          }
        }
      }
    }
    JOINT Neck
    {
      OFFSET 0.0000 37.7931 3.6897
      CHANNELS 3 Zrotation Xrotation Yrotation
      JOINT Head
      {
        OFFSET -0.0000 10.6810 2.8966
        CHANNELS 3 Zrotation Xrotation Yrotation
        End Site
        {
            OFFSET -0.2500 11.4741 2.0517
        }
      }
    }
  }
}
MOTION
Frames:	31
Frame Time:	0.033333
207.7664 80.1294 -62.1037 25.99 9.39 -76.67 29.91 -61.78 39.39 0.16 30.83 -0.01 -0.34 -28.19 0.13 -0.04 -17.30 -0.68 3.19 -14.91 -9.78 -0.15 22.80 0.01 -3.23 -36.06 -0.89 0.05 -16.46 0.68 0.79 -28.37 9.52 0.00 -0.00 0.00 -29.37 -19.93 -23.52 11.81 7.47 -55.10 28.00 0.61 6.44 -0.00 -0.00 -0.00 32.76 -32.96 -21.79 -19.55 6.41 69.81 -28.81 1.45 -9.47 -5.97 -15.92 -8.18 10.67 17.77 -18.05 
205.2366 80.4104 -60.2196 26.20 9.76 -74.59 24.96 -62.35 33.97 0.16 31.90 -0.02 -0.93 -23.93 0.16 -0.04 -15.24 -0.68 2.67 -11.32 -9.20 -0.14 19.06 -0.03 -1.50 -32.41 -0.39 0.05 -20.92 0.68 1.74 -30.18 9.77 0.00 -0.00 0.00 -30.19 -19.83 -22.60 10.57 7.36 -52.46 26.83 0.35 5.51 -0.00 -0.00 -0.00 30.41 -34.61 -22.18 -18.34 6.77 67.65 -28.47 1.27 -8.86 -7.18 -15.52 -8.48 10.58 18.63 -18.73 
202.7624 80.6354 -58.0862 26.15 9.40 -72.64 18.33 -61.82 27.66 0.16 32.96 -0.02 -1.29 -21.18 0.22 -0.04 -15.82 -0.68 1.45 -7.38 -9.40 -0.14 15.63 -0.07 1.25 -27.53 -0.07 0.05 -25.00 0.68 2.14 -32.68 10.00 0.00 -0.00 0.00 -30.39 -18.22 -20.37 9.38 7.16 -49.77 25.37 0.12 4.65 -0.00 -0.00 -0.00 28.97 -33.69 -22.83 -17.68 6.94 66.45 -28.26 1.17 -8.53 -7.84 -13.32 -8.37 10.39 19.02 -19.18 
200.2438 81.1174 -55.9113 25.87 8.50 -71.67 16.58 -58.87 32.26 0.16 33.83 -0.03 -1.06 -19.18 0.25 -0.04 -16.02 -0.68 -0.12 -3.92 -9.35 -0.14 13.48 -0.10 4.26 -21.96 -0.33 0.05 -27.89 0.69 1.31 -34.00 10.78 0.00 -0.00 0.00 -29.52 -17.27 -19.00 8.12 6.85 -46.77 23.77 -0.05 3.90 -0.00 -0.00 -0.00 29.43 -34.15 -22.24 -16.78 7.13 64.80 -27.90 1.04 -8.08 -7.75 -11.48 -8.42 10.67 19.42 -20.03 
197.8981 81.5613 -53.7337 25.41 7.45 -70.56 13.04 -55.97 32.74 0.16 34.22 -0.03 -0.74 -18.05 0.24 -0.04 -15.50 -0.68 -1.94 -2.61 -9.49 -0.14 15.44 -0.08 6.16 -17.47 -0.93 0.05 -27.69 0.69 -0.19 -34.84 10.89 0.00 -0.00 0.00 -28.06 -16.67 -17.53 7.03 6.50 -44.01 22.35 -0.16 3.35 -0.00 -0.00 -0.00 30.36 -35.09 -21.47 -15.57 7.33 62.53 -27.27 0.86 -7.45 -7.47 -9.75 -8.54 10.76 19.57 -20.81 
195.6491 82.0042 -51.5500 24.69 6.66 -68.89 7.37 -53.15 27.51 0.16 33.76 -0.03 -0.66 -18.05 0.23 -0.04 -12.66 -0.67 -3.72 -2.15 -10.11 -0.14 19.14 -0.03 7.54 -13.61 -1.66 0.05 -26.33 0.69 -2.03 -34.13 10.04 0.00 -0.00 0.00 -28.22 -18.65 -17.57 6.24 6.19 -41.85 21.21 -0.22 2.99 -0.00 -0.00 -0.00 31.60 -37.41 -19.96 -14.06 7.47 59.63 -26.36 0.65 -6.72 -7.27 -9.14 -8.81 10.66 19.49 -21.42 
193.5366 82.5171 -49.5308 24.15 6.42 -66.71 2.82 -50.48 23.33 0.16 32.73 -0.02 -0.53 -18.01 0.21 -0.04 -10.12 -0.67 -4.97 -2.42 -10.52 -0.15 23.13 0.01 9.61 -8.79 -2.96 0.05 -23.51 0.68 -2.43 -35.20 8.98 0.00 -0.00 0.00 -29.13 -18.65 -15.90 6.05 6.11 -41.31 20.80 -0.23 2.94 -0.00 -0.00 -0.00 31.48 -37.16 -19.25 -13.32 7.50 58.18 -25.94 0.55 -6.37 -7.51 -6.45 -8.69 10.34 19.29 -21.80 
191.5292 82.8864 -47.6688 23.12 5.98 -64.14 -0.64 -46.82 21.66 0.16 31.49 -0.02 -0.30 -18.63 0.18 -0.04 -7.85 -0.67 -6.39 -2.50 -12.36 -0.15 27.19 0.05 12.09 -3.45 -4.89 0.05 -22.17 0.68 -3.87 -35.12 7.85 0.00 -0.00 0.00 -30.00 -18.46 -15.69 5.95 6.06 -41.02 20.55 -0.23 2.92 -0.00 -0.00 -0.00 31.80 -37.44 -19.03 -12.61 7.50 56.75 -25.53 0.46 -6.04 -7.31 -4.03 -8.75 10.55 18.89 -22.62 
189.7446 83.1609 -45.8740 21.45 6.18 -62.86 -1.97 -43.09 19.07 0.16 30.63 -0.01 -0.43 -19.86 0.19 -0.04 -7.10 -0.67 -6.65 -2.81 -12.07 -0.15 31.11 0.09 13.48 0.98 -6.53 0.05 -18.65 0.68 -3.20 -34.37 8.50 0.00 -0.00 0.00 -31.23 -18.14 -15.60 5.98 6.08 -41.13 20.47 -0.22 2.96 -0.00 -0.00 -0.00 32.69 -36.67 -18.54 -11.90 7.48 55.29 -24.99 0.38 -5.73 -7.35 -2.07 -8.79 10.83 18.39 -23.36 
188.0964 83.4177 -44.2629 19.91 6.61 -61.14 -2.80 -39.87 17.37 0.16 30.07 -0.01 -0.46 -20.96 0.18 -0.04 -8.69 -0.67 -7.16 -3.88 -12.65 -0.16 34.78 0.12 14.19 5.61 -8.02 0.05 -17.43 0.68 -2.13 -34.16 8.98 0.00 -0.00 0.00 -32.20 -16.52 -14.70 6.22 6.18 -41.79 20.66 -0.19 3.09 -0.00 -0.00 -0.00 33.32 -35.27 -18.19 -11.81 7.47 55.10 -24.96 0.37 -5.68 -7.92 0.86 -8.72 11.42 17.57 -24.43 
186.5560 83.5449 -42.7752 18.04 6.98 -59.50 -2.94 -36.77 16.03 0.16 30.04 -0.01 -0.50 -21.88 0.17 -0.04 -7.17 -0.67 -7.09 -4.66 -11.68 -0.17 38.33 0.15 13.81 9.34 -8.65 0.05 -16.61 0.68 -0.98 -33.13 9.48 0.00 -0.00 0.00 -33.21 -15.67 -14.52 6.33 6.23 -42.11 20.60 -0.17 3.19 -0.00 -0.00 -0.00 33.87 -34.84 -17.28 -11.32 7.44 54.07 -24.54 0.32 -5.47 -8.46 2.90 -8.66 12.07 17.16 -25.41 
185.1380 83.3189 -41.5224 16.11 7.21 -57.54 -3.34 -34.04 13.83 0.16 30.45 -0.01 -0.61 -22.99 0.17 -0.04 -4.04 -0.67 -7.10 -4.73 -11.05 -0.17 41.88 0.18 10.53 9.27 -6.57 0.05 -14.84 0.67 -1.07 -31.24 9.59 0.00 -0.00 0.00 -33.10 -14.89 -15.12 6.52 6.31 -42.64 20.63 -0.15 3.33 -0.00 -0.00 -0.00 35.21 -34.43 -16.78 -11.45 7.45 54.34 -24.51 0.33 -5.55 -7.97 3.69 -9.09 12.59 16.74 -26.65 
183.8027 83.1713 -40.3082 14.17 6.77 -56.09 -3.89 -31.01 11.17 0.16 30.84 -0.02 -0.75 -24.18 0.15 -0.04 -5.43 -0.67 -7.50 -6.13 -10.33 -0.18 46.01 0.22 8.78 11.25 -5.76 0.05 -16.94 0.68 -1.02 -28.88 9.92 0.00 -0.00 0.00 -33.19 -14.75 -15.42 6.77 6.40 -43.31 20.74 -0.12 3.49 -0.00 -0.00 -0.00 36.33 -33.36 -15.93 -12.03 7.48 55.55 -24.67 0.40 -5.84 -7.81 4.44 -9.28 13.20 16.07 -27.54 
182.7271 82.9631 -39.3917 12.97 6.41 -54.50 -3.90 -28.77 11.47 0.16 31.06 -0.02 -0.85 -25.05 0.14 -0.04 -6.61 -0.67 -8.13 -9.16 -9.76 -0.20 50.94 0.26 7.17 12.89 -4.90 0.05 -19.24 0.68 -1.43 -27.90 10.17 0.00 -0.00 0.00 -32.82 -13.76 -15.07 7.24 6.58 -44.57 21.14 -0.07 3.72 -0.00 -0.00 -0.00 37.60 -30.87 -15.87 -12.79 7.50 57.11 -24.86 0.50 -6.22 -7.34 5.95 -9.60 13.40 15.13 -28.59 
181.9120 82.5607 -38.5556 11.79 5.12 -52.41 -4.98 -26.13 11.15 0.16 31.15 -0.02 -0.99 -25.80 0.12 -0.04 -7.50 -0.67 -10.13 -11.73 -10.91 -0.23 56.18 0.32 5.50 13.09 -3.80 0.05 -19.06 0.68 -2.60 -24.79 9.51 0.00 -0.00 0.00 -33.27 -13.97 -15.08 7.84 6.77 -46.10 21.64 -0.02 4.01 -0.00 -0.00 -0.00 38.83 -28.48 -14.28 -13.49 7.50 58.51 -25.09 0.58 -6.55 -7.56 5.79 -9.83 13.87 14.57 -29.29 
181.2159 82.2312 -37.9084 10.43 3.76 -50.36 -6.10 -23.49 9.21 0.16 31.35 -0.02 -1.10 -26.48 0.10 -0.04 -9.07 -0.67 -11.78 -14.49 -11.76 -0.26 61.34 0.38 4.64 12.66 -3.20 0.05 -19.35 0.68 -3.91 -21.25 8.65 0.00 -0.00 0.00 -33.19 -14.33 -15.05 8.33 6.91 -47.29 22.22 0.02 4.17 -0.00 -0.00 -0.00 39.90 -25.74 -13.02 -14.50 7.44 60.48 -25.58 0.69 -6.99 -7.72 5.78 -9.61 14.86 13.92 -29.53 
180.6963 81.8970 -37.5189 9.11 2.95 -48.70 -6.36 -21.76 8.14 0.16 32.05 -0.02 -1.21 -27.03 0.08 -0.04 -9.57 -0.67 -12.66 -18.42 -12.07 -0.31 66.47 0.45 4.37 11.80 -2.96 0.05 -19.27 0.68 -3.85 -18.38 8.31 0.00 -0.00 0.00 -33.82 -14.25 -14.66 8.78 7.03 -48.38 23.01 0.04 4.28 -0.00 -0.00 -0.00 40.13 -21.96 -12.27 -15.74 7.31 62.86 -26.14 0.84 -7.53 -8.35 6.01 -9.43 15.42 13.45 -29.73 
180.3521 81.5232 -37.3622 8.01 2.21 -47.56 -6.32 -20.85 7.49 0.16 33.37 -0.03 -1.31 -27.37 0.07 -0.04 -9.51 -0.67 -13.58 -23.40 -12.14 -0.39 71.41 0.54 4.20 12.12 -2.88 0.05 -18.15 0.68 -3.73 -14.87 7.89 0.00 -0.00 0.00 -34.88 -15.88 -14.59 8.95 7.07 -48.77 23.82 0.04 4.29 -0.00 -0.00 -0.00 40.53 -18.90 -10.10 -16.86 7.12 64.94 -26.63 0.98 -8.02 -9.04 5.08 -9.44 15.72 13.32 -29.71 
180.1397 81.0466 -37.3197 7.19 1.65 -46.29 -6.38 -20.61 6.65 0.17 35.25 -0.04 -1.47 -28.14 0.04 -0.04 -9.88 -0.67 -15.15 -28.53 -13.27 -0.49 75.66 0.67 4.05 10.02 -2.65 0.05 -19.66 0.68 -4.39 -11.69 7.02 0.00 -0.00 0.00 -35.04 -17.05 -14.30 9.01 7.08 -48.91 24.63 0.06 4.36 -0.00 -0.00 -0.00 41.28 -16.77 -7.52 -17.94 6.88 66.93 -27.23 1.13 -8.51 -8.96 4.04 -9.47 15.87 12.90 -29.36 
180.0158 80.5557 -37.4352 6.57 1.59 -45.41 -5.98 -21.16 6.20 0.17 37.52 -0.05 -1.68 -29.16 -0.01 -0.04 -9.27 -0.67 -16.42 -34.12 -14.39 -0.62 78.70 0.80 4.05 8.39 -2.54 0.05 -18.27 0.68 -4.51 -9.33 6.34 0.00 -0.00 0.00 -35.21 -18.43 -13.78 9.06 7.09 -49.02 25.36 0.10 4.54 -0.00 -0.00 -0.00 41.47 -14.40 -5.14 -19.05 6.57 68.92 -28.01 1.31 -9.07 -9.09 2.88 -9.39 15.89 12.84 -28.76 
179.9786 80.0720 -37.5089 6.42 1.63 -45.74 -5.51 -22.23 7.00 0.18 40.02 -0.06 -1.90 -30.34 -0.07 -0.04 -7.83 -0.67 -17.55 -40.14 -14.82 -0.71 80.15 0.90 4.18 7.33 -2.54 0.05 -20.93 0.68 -4.39 -7.63 6.08 0.00 -0.00 0.00 -35.41 -20.60 -12.44 9.30 7.14 -49.60 25.99 0.17 4.84 -0.00 -0.00 -0.00 40.91 -11.83 -2.07 -19.63 6.38 69.95 -28.79 1.46 -9.50 -9.68 1.80 -9.02 16.02 12.65 -27.73 
179.9331 79.4682 -37.5218 6.76 1.76 -46.54 -5.47 -23.79 7.61 0.18 42.64 -0.07 -1.96 -31.57 -0.13 -0.04 -8.14 -0.67 -18.80 -45.41 -15.44 -0.67 79.53 0.85 3.07 3.54 -1.71 0.05 -24.07 0.68 -4.98 -6.01 6.11 0.00 -0.00 0.00 -35.48 -23.87 -11.70 9.65 7.21 -50.40 26.54 0.26 5.17 -0.00 -0.00 -0.00 40.54 -10.26 1.64 -19.86 6.30 70.36 -29.43 1.59 -9.86 -9.75 0.18 -8.90 16.05 12.10 -26.69 
179.8535 78.8423 -37.4250 7.80 1.66 -48.09 -6.03 -25.39 7.93 0.19 44.78 -0.08 -1.95 -33.10 -0.18 -0.04 -8.18 -0.67 -20.00 -50.28 -15.72 -0.53 76.59 0.70 1.60 -1.95 -0.81 0.05 -23.20 0.68 -5.76 -5.38 7.10 0.00 -0.00 0.00 -35.59 -26.44 -10.70 10.03 7.28 -51.26 27.02 0.35 5.51 0.00 -0.00 -0.00 39.81 -9.27 5.01 -20.02 6.25 70.63 -29.93 1.71 -10.21 -10.35 -1.50 -8.85 16.13 12.23 -25.94 
179.7806 78.5079 -37.2029 9.48 2.04 -50.26 -6.34 -27.51 8.74 0.20 46.36 -0.09 -1.88 -34.25 -0.21 -0.04 -8.21 -0.67 -21.26 -55.47 -16.88 -0.38 71.32 0.54 0.89 -4.05 -0.49 0.05 -25.90 0.69 -6.35 -6.14 8.37 0.00 -0.00 0.00 -35.06 -28.60 -8.82 10.30 7.32 -51.85 27.39 0.43 5.79 -0.00 -0.00 -0.00 39.68 -9.12 8.36 -20.01 6.25 70.62 -30.26 1.80 -10.46 -10.91 -2.84 -8.64 16.08 12.33 -24.93 
179.6124 78.2206 -36.9118 11.40 2.08 -52.93 -6.62 -29.31 10.21 0.20 47.35 -0.10 -1.76 -35.00 -0.21 -0.04 -8.48 -0.67 -22.56 -59.20 -19.24 -0.29 64.46 0.41 0.93 -5.24 -0.48 0.05 -26.58 0.69 -7.55 -6.35 9.88 0.00 -0.00 0.00 -34.52 -31.57 -7.26 10.46 7.34 -52.21 27.64 0.48 5.99 -0.00 -0.00 -0.00 40.30 -9.64 12.39 -19.68 6.37 70.04 -30.51 1.85 -10.55 -11.27 -4.54 -8.64 16.02 11.53 -23.85 
179.2253 78.1928 -36.3744 12.93 2.06 -55.91 -6.72 -30.19 11.53 0.20 47.61 -0.10 -1.53 -35.85 -0.19 -0.04 -8.38 -0.67 -22.60 -61.49 -21.53 -0.23 56.34 0.31 1.35 -4.24 -0.66 0.05 -27.26 0.69 -7.41 -6.40 11.40 0.00 -0.00 0.00 -34.85 -34.67 -5.25 10.58 7.36 -52.47 27.82 0.53 6.15 -0.00 -0.00 -0.00 39.65 -9.77 16.43 -19.24 6.51 69.25 -30.72 1.88 -10.63 -12.83 -6.19 -8.53 16.29 11.34 -22.80 
178.7482 78.2953 -35.9791 14.67 2.13 -58.44 -6.92 -31.14 12.33 0.20 47.32 -0.10 -1.27 -36.40 -0.14 -0.04 -8.58 -0.67 -22.81 -63.61 -24.10 -0.19 48.39 0.23 2.00 -2.00 -0.98 0.05 -26.43 0.69 -8.09 -7.68 12.90 0.00 -0.00 0.00 -33.87 -36.48 -3.39 10.45 7.34 -52.19 27.85 0.53 6.17 -0.00 -0.00 -0.00 40.18 -9.68 19.25 -18.78 6.65 68.43 -30.89 1.91 -10.70 -12.90 -7.12 -8.50 15.69 11.21 -21.93 
178.0959 78.4576 -35.6109 15.97 2.13 -60.04 -7.29 -31.51 12.34 0.20 46.74 -0.10 -1.01 -36.36 -0.08 -0.04 -7.82 -0.67 -23.51 -64.79 -26.48 -0.17 41.71 0.16 2.87 -0.46 -1.41 0.05 -27.16 0.69 -8.43 -8.75 13.60 0.00 -0.00 0.00 -33.29 -38.39 -1.62 10.39 7.33 -52.06 27.91 0.55 6.22 -0.00 -0.00 -0.00 39.95 -8.38 21.39 -18.31 6.78 67.59 -30.94 1.90 -10.65 -13.16 -7.95 -8.48 15.29 11.56 -21.36 
177.2538 78.7239 -35.2820 16.95 2.36 -61.67 -7.26 -31.48 12.23 0.19 45.76 -0.09 -0.86 -36.12 -0.04 -0.04 -7.69 -0.67 -21.85 -65.95 -24.35 -0.16 36.47 0.11 4.48 -0.45 -2.12 0.05 -27.60 0.69 -8.19 -9.43 14.65 0.00 -0.00 0.00 -33.51 -39.98 -0.80 10.32 7.32 -51.89 27.91 0.55 6.22 -0.00 -0.00 -0.00 39.15 -6.91 23.03 -18.09 6.84 67.19 -30.96 1.90 -10.64 -13.44 -8.82 -8.63 15.03 11.84 -21.16 
176.2736 79.0089 -34.9553 17.93 2.39 -62.86 -7.67 -30.98 11.62 0.19 44.30 -0.08 -0.64 -36.16 0.01 -0.04 -8.41 -0.67 -19.07 -67.15 -17.25 -0.16 32.85 0.07 6.74 -1.86 -2.96 0.05 -27.49 0.69 -8.29 -10.39 15.57 0.00 -0.00 0.00 -33.24 -40.20 -0.12 10.22 7.31 -51.69 27.85 0.53 6.16 -0.00 -0.00 -0.00 38.24 -4.95 23.65 -18.38 6.76 67.71 -31.02 1.95 -10.79 -13.56 -9.07 -8.78 15.07 11.98 -21.35 
175.1028 79.2945 -34.6237 18.56 2.45 -63.62 -8.13 -29.95 10.42 0.18 42.65 -0.07 -0.25 -36.19 0.10 -0.04 -8.58 -0.67 -13.89 -67.73 -4.24 -0.16 30.65 0.05 9.27 -4.66 -3.56 0.05 -27.60 0.69 -8.16 -11.05 16.12 0.00 -0.00 0.00 -33.07 -40.37 0.60 10.19 7.30 -51.61 27.81 0.52 6.12 -0.00 -0.00 -0.00 36.52 -2.29 23.88 -18.86 6.63 68.58 -31.04 1.99 -10.95 -13.43 -9.63 -8.99 14.58 12.58 -21.48 
